<svg width="584" height="599" viewBox="0 0 584 599" fill="none" xmlns="http://www.w3.org/2000/svg">
<path fill-rule="evenodd" clip-rule="evenodd" d="M221 137.382C221 85.1974 247.644 37.3354 292 0V0.381531C336.356 37.7169 363 85.5789 363 137.763V137.882C363 174.968 338.507 205.89 306 212.895V253.299C311.184 245.561 317.75 238.186 325.59 231.608L325.682 231.531C366.229 197.508 416.916 182.39 468.398 184.829L468.694 184.581C462.157 235.704 438.467 282.996 397.92 317.019L397.919 317.018C397.791 317.127 397.661 317.236 397.532 317.345C366.704 343.212 327.157 347.555 306 328.383V415.972C301.425 415.331 296.751 415 292 415C286.902 415 281.893 415.382 277 416.117V327.042C255.9 347.496 215.441 343.615 184.134 317.345C184.004 317.236 183.875 317.127 183.746 317.018L183.745 317.019C143.198 282.996 119.655 235.529 113.361 184.116L113.658 184.365C165.383 181.635 216.217 196.578 256.763 230.601L256.855 230.678C264.993 237.506 271.748 245.206 277 253.29V212.671C244.992 205.254 221 174.586 221 137.882L221 137.677C221 137.578 221.001 137.48 221.001 137.382H221ZM193.585 32.0002C80.7381 72.3896 0 180.266 0 307C0 468.267 130.733 599 292 599C453.267 599 584 468.267 584 307C584 180.266 503.262 72.3896 390.415 32.0002C381.894 32.0458 375 38.9678 375 47.5C375 53.9348 378.921 59.4539 384.505 61.7979C384.836 61.923 385.167 62.0487 385.498 62.1751C385.664 62.2318 385.831 62.2856 386 62.3367V62.3676C484.263 100.149 554 195.431 554 307C554 360.432 538.005 410.128 510.542 451.562L484.419 427H502.741L482.664 400.25H494.014L468.466 362L442.919 400.25H455.269L435.191 427H452.513L443.57 435.409L414.419 408H432.741L412.664 381.25H424.014L398.466 343L372.919 381.25H385.269L365.191 408H382.513L353 435.75H378.525L365.896 447.624C366.542 448.332 367.177 449.049 367.803 449.775C386.954 452.206 405.822 455.546 424.362 459.75H443.207L439.369 463.359C456.535 467.726 473.404 472.837 489.939 478.657C482.755 486.935 475.059 494.757 466.902 502.076C440.959 494.123 414.262 487.894 386.945 483.521C390.225 493.419 392 504.002 392 515C392 528.089 389.485 540.59 384.913 552.048C371.034 557.313 356.592 561.432 341.702 564.292C354.249 551.641 362 534.226 362 515C362 476.34 330.66 445 292 445C253.34 445 222 476.34 222 515C222 534.226 229.751 551.641 242.298 564.292C227.408 561.432 212.966 557.313 199.087 552.048C194.515 540.59 192 528.089 192 515C192 504.002 193.775 493.419 197.055 483.521C169.738 487.894 143.041 494.123 117.098 502.076C108.941 494.757 101.245 486.935 94.0606 478.657C110.831 472.754 127.946 467.58 145.366 463.173L141.725 459.75H159.638C178.178 455.546 197.046 452.206 216.197 449.775C216.962 448.888 217.741 448.014 218.536 447.154L206.408 435.75H231.005C231.175 435.619 231.345 435.488 231.516 435.358L202.419 408H219.741L199.664 381.25H212.014L186.466 343L160.919 381.25H172.269L152.191 408H170.513L141.363 435.409L132.419 427H149.741L129.664 400.25H142.014L116.466 362L90.9186 400.25H102.269L82.1914 427H100.513L73.8163 452.102C46.1342 410.56 30 360.664 30 307C30 195.431 99.7373 100.149 198 62.3676V62.3367C198.169 62.2856 198.336 62.2318 198.502 62.1751C198.833 62.0487 199.164 61.923 199.495 61.7979C205.079 59.4539 209 53.9348 209 47.5C209 38.9678 202.106 32.0458 193.585 32.0002ZM488.408 454.75H508.396C505.795 458.552 503.096 462.282 500.304 465.936L488.408 454.75ZM96.525 454.75L84.0864 466.445C81.1549 462.629 78.3262 458.729 75.6043 454.75H96.525ZM141.725 435.75L154.125 447.409L166.525 435.75H141.725ZM136.408 454.75L141.363 459.409L146.318 454.75H136.408ZM443.57 459.409L448.525 454.75H438.615L443.57 459.409ZM430.807 447.409L443.207 435.75H418.408L430.807 447.409ZM281.478 470C260.702 477.017 246 494.374 246 514.675C246 535.547 261.542 553.307 283.248 559.917C270.233 548.824 262 532.445 262 514.175C262 496.747 269.491 481.04 281.478 470Z" fill="#093747"/>
</svg>
