<svg width="23" height="24" viewBox="0 0 23 24" fill="none" xmlns="http://www.w3.org/2000/svg">
<path d="M21.0053 9.89728L11.108 15.4831L0.509735 9.51498L0 9.79109V14.1238L11.108 20.3681L21.0053 14.8035V17.0973L11.108 22.6831L0.509735 16.715L0 16.9911V17.7345L11.108 23.9787L22.1947 17.7345V13.4017L21.685 13.1256L11.108 19.0725L1.18938 13.5079V11.2141L11.108 16.7787L22.1947 10.5345V6.26543L21.6425 5.94684L11.108 11.8725L1.69911 6.60525L11.108 1.31675L18.8389 5.67074L19.5186 5.28844V4.75746L11.108 0.0211792L0 6.26543V6.94507L11.108 13.1893L21.0053 7.60348V9.89728Z" fill="#EE3D2C"/>
</svg>
