<svg width="1223" height="1222" viewBox="0 0 1223 1222" fill="none" xmlns="http://www.w3.org/2000/svg">
<path fill-rule="evenodd" clip-rule="evenodd" d="M611.5 0C567.999 45.5952 541.134 108.021 541.001 176.897H541C541 224.451 572.564 263 611.5 263C650.436 263 682 224.451 682 176.897H682C681.867 108.021 655.001 45.5952 611.5 0ZM611.5 1222C567.999 1176.4 541.134 1113.98 541.001 1045.1C541 997.549 572.564 959 611.5 959C650.436 959 682 997.549 682 1045.1C681.867 1113.98 655.001 1176.4 611.5 1222ZM306 81.8585C291.125 143.095 299.071 210.591 333.394 270.306L333.394 270.306C357.17 311.488 403.78 329.091 437.5 309.623C471.22 290.155 479.28 240.988 455.503 199.806L455.503 199.806C420.95 140.224 366.47 99.5948 306 81.8585ZM917 1140.14C856.53 1122.41 802.05 1081.78 767.497 1022.19L767.497 1022.19C743.72 981.012 751.78 931.845 785.5 912.377C819.22 892.909 865.83 910.512 889.606 951.694C923.929 1011.41 931.875 1078.9 917 1140.14ZM200.306 455.003C140.724 420.45 100.095 365.97 82.3585 305.5C143.595 290.625 211.091 298.571 270.806 332.894L270.806 332.894C311.988 356.67 329.591 403.28 310.123 437C290.655 470.72 241.488 478.78 200.306 455.003L200.306 455.003ZM952.194 889.106C1011.91 923.429 1079.4 931.375 1140.64 916.5C1122.91 856.03 1082.28 801.55 1022.69 766.997C981.512 743.22 932.345 751.28 912.877 785C893.409 818.72 911.012 865.33 952.194 889.106L952.194 889.106ZM0.500061 611C46.0953 654.501 108.521 681.366 177.397 681.5V681.5C219.006 681.5 253.722 657.334 261.751 625.208C262.898 620.619 263.5 615.867 263.5 611C263.5 572.064 224.951 540.5 177.397 540.5V540.5C108.521 540.634 46.0953 567.499 0.500061 611ZM1222.5 611C1176.9 654.501 1114.48 681.366 1045.6 681.499C1003.99 681.5 969.278 657.334 961.249 625.208C960.102 620.619 959.5 615.867 959.5 611C959.5 578.148 986.944 550.544 1024.08 542.72C1030.96 541.271 1038.17 540.5 1045.6 540.5C1058.4 540.525 1070.97 541.473 1083.26 543.278C1137.09 551.191 1185.38 575.582 1222.5 611ZM270.806 889.106C211.091 923.429 143.595 931.375 82.3585 916.5C100.095 856.03 140.724 801.55 200.306 766.997L200.306 766.997C241.488 743.22 290.655 751.28 310.123 785C329.591 818.72 311.988 865.33 270.806 889.106L270.806 889.106ZM1022.69 455.003C1082.28 420.45 1122.91 365.97 1140.64 305.5C1079.4 290.625 1011.91 298.571 952.194 332.894L952.194 332.894C911.012 356.671 893.409 403.28 912.877 437C932.345 470.72 981.512 478.78 1022.69 455.003L1022.69 455.003ZM306 1140.14C366.47 1122.41 420.95 1081.78 455.503 1022.19L455.503 1022.19C479.28 981.012 471.22 931.845 437.5 912.377C403.78 892.909 357.171 910.512 333.394 951.694L333.394 951.694C299.071 1011.41 291.125 1078.9 306 1140.14ZM917 81.8585C931.875 143.095 923.929 210.591 889.606 270.306L889.606 270.306C865.83 311.488 819.22 329.091 785.5 309.623C751.78 290.155 743.72 240.988 767.497 199.806C802.05 140.224 856.53 99.5948 917 81.8585ZM612 321C567.644 358.335 541 406.197 541 458.382H541.001C541.001 458.46 541.001 458.539 541 458.618C541 458.706 541 458.794 541 458.882C541 495.586 564.992 526.254 597 533.671V574.29C591.748 566.206 584.993 558.506 576.855 551.678L576.763 551.601C536.217 517.578 485.383 502.635 433.658 505.365L433.361 505.116C439.655 556.529 463.198 603.996 503.745 638.019L503.746 638.018C503.875 638.127 504.004 638.236 504.134 638.345C535.441 664.615 575.9 668.496 597 648.042V737.117C601.893 736.382 606.902 736 612 736C616.751 736 621.425 736.331 626 736.972V649.383C647.157 668.555 686.704 664.212 717.532 638.345C717.661 638.236 717.791 638.127 717.919 638.018L717.92 638.019C758.467 603.996 782.157 556.704 788.694 505.581L788.398 505.829C736.916 503.39 686.229 518.508 645.682 552.531L645.59 552.608C637.75 559.186 631.184 566.561 626 574.299V533.895C658.507 526.89 683 495.968 683 458.882V458.763C683 406.579 656.356 358.717 612 321.382V321ZM320 628C320 501.266 400.738 393.39 513.585 353C522.106 353.046 529 359.968 529 368.5C529 374.935 525.079 380.454 519.495 382.798C519.164 382.923 518.833 383.049 518.502 383.175C518.336 383.232 518.169 383.286 518 383.337V383.368C419.737 421.149 350 516.431 350 628C350 681.664 366.134 731.56 393.816 773.102L420.513 748H402.191L422.269 721.25H410.919L436.466 683L462.014 721.25H449.664L469.741 748H452.419L461.363 756.409L490.513 729H472.191L492.269 702.25H480.919L506.466 664L532.014 702.25H519.664L539.741 729H522.419L551.516 756.358C551.345 756.488 551.175 756.619 551.005 756.75H526.408L538.536 768.154C537.741 769.014 536.962 769.888 536.197 770.775C517.046 773.206 498.178 776.546 479.638 780.75H461.725L465.366 784.173C447.946 788.58 430.831 793.754 414.061 799.657C421.245 807.935 428.941 815.757 437.098 823.076C463.041 815.123 489.738 808.894 517.055 804.521C513.775 814.419 512 825.002 512 836C512 849.089 514.515 861.59 519.087 873.048C532.966 878.313 547.408 882.432 562.298 885.292C549.751 872.641 542 855.226 542 836C542 797.34 573.34 766 612 766C650.66 766 682 797.34 682 836C682 855.226 674.249 872.641 661.702 885.292C676.592 882.432 691.034 878.313 704.913 873.048C709.485 861.59 712 849.089 712 836C712 825.002 710.225 814.419 706.945 804.521C734.262 808.894 760.959 815.123 786.902 823.076C795.059 815.757 802.755 807.935 809.939 799.657C793.404 793.837 776.535 788.726 759.369 784.359L763.207 780.75H744.362C725.822 776.546 706.954 773.206 687.803 770.775C687.177 770.049 686.542 769.332 685.896 768.624L698.525 756.75H673L702.513 729H685.191L705.269 702.25H692.919L718.466 664L744.014 702.25H732.664L752.741 729H734.419L763.57 756.409L772.513 748H755.191L775.269 721.25H762.919L788.466 683L814.014 721.25H802.664L822.741 748H804.419L830.542 772.562C858.005 731.129 874 681.432 874 628C874 516.431 804.263 421.149 706 383.368V383.337C705.831 383.286 705.664 383.232 705.498 383.175C705.34 383.115 705.181 383.054 705.023 382.994C704.85 382.929 704.677 382.863 704.505 382.798C698.921 380.454 695 374.935 695 368.5C695 359.968 701.894 353.046 710.415 353C823.262 393.39 904 501.266 904 628C904 789.267 773.267 920 612 920C450.733 920 320 789.267 320 628ZM828.396 775.75H808.408L820.304 786.936C823.097 783.282 825.795 779.552 828.396 775.75ZM404.086 787.445L416.525 775.75H395.604C398.326 779.729 401.155 783.629 404.086 787.445ZM474.125 768.409L461.725 756.75H486.525L474.125 768.409ZM461.363 780.409L456.408 775.75H466.318L461.363 780.409ZM768.525 775.75L763.57 780.409L758.615 775.75H768.525ZM763.207 756.75L750.807 768.409L738.408 756.75H763.207ZM566 835.675C566 815.374 580.702 798.017 601.478 791C589.491 802.04 582 817.747 582 835.175C582 853.445 590.233 869.824 603.248 880.917C581.542 874.307 566 856.547 566 835.675Z" fill="#093747"/>
</svg>
